<?xml version="1.0" encoding="UTF-8" standalone="no"?>
<svg
   width="128"
   height="128"
   aria-labelledby="titleDesc"
   role="img"
   version="1.1"
   viewBox="0 0 128 128"
   id="svg14"
   sodipodi:docname="icon_full.svg"
   inkscape:version="1.4.2 (ebf0e940d0, 2025-05-08)"
   xmlns:inkscape="http://www.inkscape.org/namespaces/inkscape"
   xmlns:sodipodi="http://sodipodi.sourceforge.net/DTD/sodipodi-0.dtd"
   xmlns="http://www.w3.org/2000/svg"
   xmlns:svg="http://www.w3.org/2000/svg"
   xmlns:rdf="http://www.w3.org/1999/02/22-rdf-syntax-ns#"
   xmlns:cc="http://creativecommons.org/ns#"
   xmlns:dc="http://purl.org/dc/elements/1.1/">
  <sodipodi:namedview
     id="namedview14"
     pagecolor="#ffffff"
     bordercolor="#000000"
     borderopacity="0.25"
     inkscape:showpageshadow="2"
     inkscape:pageopacity="0.0"
     inkscape:pagecheckerboard="0"
     inkscape:deskcolor="#d1d1d1"
     inkscape:zoom="6.1958819"
     inkscape:cx="66.415082"
     inkscape:cy="61.411758"
     inkscape:window-width="1920"
     inkscape:window-height="1172"
     inkscape:window-x="0"
     inkscape:window-y="0"
     inkscape:window-maximized="1"
     inkscape:current-layer="svg14" />
  <title
     id="titleDesc">Cartoon landscape icon with blue sky, sun, puffy cloud, and green hills</title>
  <defs
     id="defs6">
    <linearGradient
       id="skyGrad"
       x2="0"
       y2="128"
       gradientUnits="userSpaceOnUse">
      <stop
         stop-color="#9ad1ff"
         offset="0"
         id="stop1" />
      <stop
         stop-color="#70c1ff"
         offset="1"
         id="stop2" />
    </linearGradient>
    <linearGradient
       id="hillGrad"
       x2="0"
       y1="70.522"
       y2="168.93"
       gradientTransform="scale(1.2572,0.75771)"
       gradientUnits="userSpaceOnUse">
      <stop
         stop-color="#6bd36b"
         offset="0"
         id="stop3" />
      <stop
         stop-color="#43b443"
         offset="1"
         id="stop4" />
    </linearGradient>
    <linearGradient
       id="fgGrassGrad"
       x2="0"
       y2="217.18879"
       gradientTransform="scale(1.6967874,0.58934903)"
       x1="0"
       y1="141.75211"
       gradientUnits="userSpaceOnUse">
      <stop
         stop-color="#4fc14f"
         offset="0"
         id="stop5" />
      <stop
         stop-color="#2f9f2f"
         offset="1"
         id="stop6" />
    </linearGradient>
  </defs>
  <metadata
     id="metadata14">
    <rdf:RDF>
      <cc:Work
         rdf:about="">
        <dc:title>Cartoon landscape icon with blue sky, sun, puffy cloud, and green hills</dc:title>
      </cc:Work>
    </rdf:RDF>
  </metadata>
  <g
     id="g16">
    <rect
       width="128"
       height="128"
       fill="url(#skyGrad)"
       id="rect6"
       style="fill:url(#skyGrad)"
       x="0"
       y="0" />
    <g
       transform="translate(94,26)"
       fill="#ffd75a"
       id="g7">
      <circle
         r="14"
         id="circle6"
         cx="0"
         cy="0" />
      <circle
         r="22"
         opacity="0.12"
         id="circle7"
         cx="0"
         cy="0" />
    </g>
    <g
       transform="translate(26,26)"
       fill="#ffffff"
       id="g11">
      <circle
         cx="8"
         cy="10"
         r="8"
         id="circle8" />
      <circle
         cx="18"
         cy="6"
         r="10"
         id="circle9" />
      <circle
         cx="30"
         cy="10"
         r="8"
         id="circle10" />
      <circle
         cx="18.392"
         cy="10.349"
         r="8"
         id="circle11" />
    </g>
    <path
       d="M 0,78 C 26.673,58 51.441,68 76.21,56 c 24.768,-12 51.459,9.0608 51.779,16.035 l -0.0224,55.956 -127.97,0.009 z"
       fill="url(#hillGrad)"
       stroke-width="0.97602"
       id="path11"
       style="fill:url(#hillGrad)" />
    <path
       d="m 0,96 c 20,-14 48,0 72,-10 24,-10 52,14 56,10 v 32 H 0 Z"
       fill="url(#fgGrassGrad)"
       id="path12"
       style="fill:url(#fgGrassGrad)" />
    <g
       transform="translate(22,86)"
       id="g14">
      <rect
         x="6"
         y="8"
         width="4"
         height="12"
         rx="1"
         fill="#7a4b2a"
         id="rect12" />
      <circle
         cx="8"
         cy="2"
         r="8"
         fill="#2fa24f"
         id="circle12" />
      <circle
         cx="2"
         cy="6"
         r="6"
         fill="#33b24f"
         id="circle13" />
      <circle
         cx="14"
         cy="6"
         r="6"
         fill="#2fa24f"
         id="circle14" />
    </g>
    <g
       id="g15"
       transform="matrix(0.0733642,-0.02670239,0.02670239,0.0733642,67.760751,64.096666)">
      <path
         fill="#47251a"
         d="m -168.05377,212.65272 c 9.737,1.743 17.386,0.672 25.002,0.329 8.743,-0.394 17.479,-1.166 26.223,-1.234 3.448,-0.027 7.117,0.915 10.309,2.291 4.102,1.769 5.945,5.514 5.882,10.033 -0.064,4.533 -2.076,8.289 -6.196,9.851 -3.725,1.412 -7.922,2.141 -11.918,2.171 -12.872,0.095 -25.746,-0.293 -38.62,-0.45 -5.11,-0.063 -10.221,-0.011 -15.194,-0.011 -4.207,5.203 -4.645,10.959 -6.038,16.301 -11.296,43.313 -22.385,86.68 -33.888,129.938 -2.366,8.898 -6.113,17.44 -9.409,26.075 -1.179,3.09 -3.394,5.158 -8.222,4.104 -0.47,-1.876 -1.432,-4.193 -1.583,-6.561 -0.89,-14.029 2.04,-27.694 4.506,-41.354 7.036,-38.99 13.552,-78.087 23.362,-116.526 0.874,-3.425 0.893,-7.068 1.414,-11.512 -3.736,-0.791 -7.093,-2.047 -10.478,-2.127 -16.473,-0.393 -32.954,-0.458 -49.431,-0.674 -4.117,-0.054 -8.335,0.272 -12.319,-0.522 -3.367,-0.671 -6.718,-2.341 -9.562,-4.311 -1.293,-0.895 -2.134,-3.773 -1.74,-5.402 0.396,-1.635 2.365,-3.296 4.048,-4.101 1.759,-0.841 3.994,-0.725 6.03,-0.941 24.071,-2.557 48.157,-4.861 72.413,-4.52 1.98,0.028 3.968,-0.574 6.616,-0.987 1.132,-3.419 2.528,-6.66 3.275,-10.044 8.111,-36.68 15.984,-73.413 24.189,-110.072 11.014,-49.21 22.187,-98.385 33.442,-147.541 5.197,-22.696 13.563,-44.262 24.398,-64.852 7.43,-14.119 14.872,-28.239 22.697,-42.14 6.326,-11.238 13.415,-22.129 23.089,-30.768 6.072,-5.422 12.921,-10.214 20.07,-14.093 3.741,-2.03 8.93,-2.186 13.376,-1.884 3.915,0.266 6.234,3.288 4.971,8.463 -11.524,3.473 -19.736,12.004 -26.435,21.792 -7.245,10.586 -14.12,21.532 -20.003,32.916 -7.553,14.617 -14.085,29.77 -20.83,44.794 -10.819,24.101 -16.765,49.687 -22.374,75.339 -16.267,74.401 -32.44,148.823 -48.6,223.247 -0.968,4.459 -1.499,9.015 -2.472,14.983 z"
         id="path1" />
      <path
         fill="#47251a"
         d="m -335.68477,9.94772 c -3.888,-5.849 -7.05,-10.525 -10.131,-15.254 -19.382,-29.756 -38.745,-59.524 -58.113,-89.288 -1.119,-1.72 -2.461,-3.342 -3.294,-5.193 -2.795,-6.208 0.42,-12.849 7.207,-14.283 3.458,-0.731 7.164,-0.772 10.713,-0.515 51.35,3.731 102.705,7.407 154.028,11.483 13.323,1.058 26.55,3.373 39.796,5.281 2.462,0.354 4.968,1.234 7.138,2.439 1.059,0.589 1.987,2.532 1.886,3.774 -0.101,1.242 -1.362,3.134 -2.458,3.419 -3.925,1.019 -7.993,2.039 -12.011,2.052 -18.018,0.059 -36.053,0.179 -54.054,-0.479 -35.505,-1.297 -70.991,-3.117 -106.488,-4.657 -4.593,-0.199 -9.202,-0.027 -15.167,-0.027 1.41,3.448 2.065,6.302 3.586,8.577 17.162,25.682 34.458,51.274 51.715,76.893 1.438,2.135 2.789,4.33 4.288,6.421 2.959,4.127 3.597,8.603 1.403,13.114 -2.455,5.047 -4.863,10.243 -8.166,14.73 -18.012,24.462 -36.298,48.722 -54.477,73.061 -2.147,2.875 -4.215,5.809 -6.244,8.612 1.78,5.126 5.978,3.471 9.218,3.505 34.5,0.371 69.005,0.428 103.503,0.911 19.563,0.274 39.122,1.049 58.671,1.884 5.089,0.217 10.205,1.217 15.149,2.481 1.43,0.366 3.31,3.006 3.165,4.418 -0.159,1.552 -2.167,3.583 -3.81,4.167 -2.848,1.012 -6.02,1.301 -9.081,1.492 -24.663,1.537 -49.315,3.545 -74.004,4.32 -38.087,1.196 -76.2,1.573 -114.304,2.17 -4.595,0.072 -9.316,-0.126 -13.776,-1.113 -5.931,-1.311 -8.812,-7.941 -6.285,-13.471 0.837,-1.832 2.258,-3.403 3.458,-5.061 21.429,-29.597 42.857,-59.195 64.307,-88.776 3.908,-5.389 7.911,-10.706 12.632,-17.087 z"
         id="path2" />
      <path
         fill="#47251a"
         d="m 269.31223,52.32772 c 3.729,-1.918 6.836,-3.378 9.813,-5.07 24.239,-13.769 52.661,-10.11 72.418,9.25 11.744,11.509 17.044,25.523 16.166,41.782 -0.645,11.947 -3.342,23.537 -9.917,33.687 -20.311,31.356 -48.417,48.31 -86.655,45.344 -5.508,-0.427 -11.14,-2.17 -16.237,-4.396 -13.252,-5.785 -22.076,-20.449 -20.195,-34.831 2.196,-16.795 5.762,-33.406 8.427,-50.146 8.405,-52.799 16.992,-105.575 20.984,-158.961 0.613,-8.198 1.642,-16.385 2.943,-24.502 0.463,-2.887 2.159,-5.631 3.572,-8.291 0.863,-1.626 4.704,-1.2 5.17,0.619 1.007,3.922 2.242,7.936 2.287,11.925 0.152,13.368 0.263,26.764 -0.417,40.108 -1.387,27.213 -3.024,54.41 -7.361,81.387 -1.093,6.808 -3.312,13.854 -0.998,22.095 z m -15.137,91.321 c 10.237,7.195 20.911,9.714 32.352,10.558 25.137,1.855 57.521,-15.502 62.388,-53.675 2.116,-16.599 -6.668,-31.428 -21.891,-38.837 -16.43,-7.996 -33.259,-5.824 -45.588,5.989 -6.749,6.466 -11.539,14.312 -15.705,22.61 -8.495,16.924 -8.712,35.466 -11.556,53.355 z"
         id="path3" />
      <path
         fill="#47251a"
         d="m 111.91823,133.25472 c 5.058,0.443 9.522,0.834 14.663,1.284 -0.181,2.635 0.347,4.978 -0.55,6.454 -8.105,13.338 -22.095,14.413 -31.412,1.926 -3.558,-4.768 -5.263,-10.982 -7.471,-16.67 -1.396,-3.597 -2.161,-7.439 -3.718,-12.983 -4.223,4.753 -6.948,8.351 -10.211,11.366 -4.498,4.156 -8.926,8.763 -14.229,11.598 -12.912,6.904 -25.162,3.759 -33.741,-8.527 -3.766,-5.393 -6.859,-11.552 -8.89,-17.806 -5.992,-18.452 -7.003,-37.394 -2.472,-56.305 3.853,-16.081 10.075,-31.308 19.335,-45.125 7.247,-10.812 16.244,-19.717 27.667,-26.318 9.811,-5.669 19.856,-4.462 29.796,-1.87 2.78,0.725 5.71,4.646 6.701,7.706 2.36,7.286 3.985,14.871 5.222,22.448 3.075,18.838 3.455,37.854 3.108,56.907 -0.271,14.902 -0.464,29.809 -0.323,44.711 0.067,7.191 0.916,14.394 6.525,21.204 z m -35.336,-142.065 c -8.433,3.67 -14.633,8.948 -20.103,15.03 -18.224,20.264 -28.079,44.343 -29.729,71.303 -0.884,14.455 1.945,28.819 10.416,41.244 4.666,6.844 10.663,7.804 17.193,2.895 2.844,-2.138 5.724,-4.644 7.566,-7.616 4.586,-7.401 9.358,-14.844 12.682,-22.841 12.064,-29.027 12.775,-59.052 6.249,-89.447 -0.716,-3.332 -2.562,-6.422 -4.274,-10.568 z"
         id="path4" />
      <path
         fill="#47251a"
         d="m 48.15223,-152.72528 c -4.726,5.399 -7.581,8.926 -10.708,12.191 -24.865,25.957 -44.291,55.256 -55.962,89.501 -9.804,28.766 -17.583,57.906 -21.854,88.125 -5.672,40.135 -0.901,78.863 11.393,117.136 5.652,17.597 10.476,35.472 15.223,53.342 1.432,5.388 1.521,11.169 1.886,16.791 0.217,3.343 -1.436,6.148 -4.826,6.941 -3.424,0.8 -6.106,-1.226 -7.57,-4.072 -2.579,-5.012 -4.956,-10.162 -6.968,-15.427 -10.859,-28.41 -18.961,-57.626 -24.069,-87.588 -14.37,-84.298 5.632,-161.218 51.531,-232.038 8.305,-12.816 19.455,-23.879 29.938,-35.15 4.722,-5.078 10.403,-9.947 21.986,-9.752 z"
         id="path5" />
      <path
         fill="#47251a"
         d="m 385.36823,-97.05028 c 2.538,1.514 5.789,2.411 7.268,4.539 3.789,5.45 7.249,11.237 10.024,17.265 9.547,20.742 14.045,42.971 18.258,65.223 13.763,72.705 5.447,143.447 -19.55,212.573 -5.42,14.987 -11.637,29.694 -17.79,44.403 -2.784,6.654 -6.28,13.119 -12.404,17.36 -1.893,1.311 -4.973,2.126 -7.107,1.584 -3.093,-0.787 -5.275,-3.824 -4.742,-7.118 0.893,-5.517 1.955,-11.159 4.048,-16.3 5.041,-12.382 10.936,-24.415 16.1,-36.75 11.938,-28.526 22.181,-57.544 27.04,-88.305 7.384,-46.738 7.319,-93.281 -2.025,-139.731 -1.521,-7.563 -3.141,-15.106 -4.692,-22.663 -3.214,-15.659 -7.096,-31.093 -14.734,-45.326 -0.667,-1.244 -0.605,-2.907 -0.743,-4.388 -0.041,-0.445 0.39,-0.933 1.049,-2.366 z"
         id="path6" />
      <path
         fill="#47251a"
         d="m 664.04523,28.88272 c -1.948,-0.689 -3.807,-1.251 -5.591,-1.991 -15.728,-6.521 -29.3,-1.798 -41.284,8.619 -20.402,17.735 -25.962,49.91 -12.405,73.231 7.254,12.479 19.862,17.452 33.414,19.576 6.012,0.943 12.294,0.175 18.454,0.152 4.623,-0.018 9.322,-0.619 13.842,0.042 3.362,0.492 6.823,2.115 9.637,4.092 3.593,2.525 3.911,7.981 0.53,10.826 -3.021,2.543 -6.703,4.904 -10.472,5.86 -25.604,6.49 -48.906,0.544 -70.06,-14.452 -4.501,-3.191 -8.832,-7.448 -11.557,-12.184 -20.304,-35.278 -15.82,-72.614 13.773,-101.213 10.798,-10.435 24.491,-14.85 39.649,-13.657 7.948,0.625 14.92,3.654 20.498,9.503 2.647,2.777 2.686,3.323 1.572,11.596 z"
         id="path7" />
      <path
         fill="#47251a"
         d="m 164.47123,65.48372 c 0,-7.065 -0.006,-12.16 0.001,-17.255 0.024,-16.957 0.032,-33.914 0.095,-50.871 0.015,-4.109 0.053,-8.229 0.378,-12.321 0.283,-3.567 0.698,-7.331 4.947,-8.648 3.075,-0.953 6.112,2.131 7.236,8.247 1.203,6.546 2.08,13.193 2.502,19.833 1.108,17.433 1.867,34.888 2.832,52.33 0.137,2.472 0.654,4.923 1.113,8.228 4.912,0.387 9.42,0.619 13.897,1.126 6.109,0.69 12.23,1.395 18.273,2.494 2.425,0.441 4.831,1.673 6.939,3.024 3.947,2.53 3.546,8.363 -0.83,9.799 -4.327,1.421 -8.928,2.448 -13.462,2.703 -7.665,0.431 -15.373,0.118 -22.211,0.118 -4.479,3.974 -3.335,8.32 -3.327,12.255 0.032,14.909 0.155,29.828 -2.944,44.498 -0.706,3.345 -2.354,6.636 -4.26,9.492 -0.565,0.846 -4.213,0.871 -5.172,-0.053 -1.71,-1.647 -3.172,-4.211 -3.466,-6.552 -1.212,-9.66 -2.279,-19.364 -2.769,-29.083 -0.513,-10.175 -0.303,-20.386 -0.41,-30.691 -4.802,-1.685 -8.734,-2.782 -12.408,-4.448 -2.75,-1.247 -5.7,-2.789 -7.556,-5.031 -1.362,-1.646 -2.086,-5.075 -1.277,-6.907 0.798,-1.809 3.835,-3.558 5.968,-3.656 4.47,-0.206 8.991,0.689 15.911,1.369 z"
         id="path8" />
      <path
         fill="#47251a"
         d="m 526.84923,60.36872 c -13.209,0.573 -27.9,-1.48 -42.387,-5.111 -3.452,-0.865 -6.875,-2.05 -10.109,-3.529 -3.664,-1.677 -4.327,-6.502 -1.163,-8.825 2.389,-1.754 5.215,-3.56 8.033,-3.933 4.517,-0.597 9.316,-0.686 13.773,0.168 16.602,3.182 33.117,6.824 49.656,10.335 1.496,0.318 2.982,0.816 4.377,1.442 2.368,1.061 5.191,2.656 3.919,5.449 -0.815,1.789 -3.701,3.171 -5.899,3.662 -2.943,0.658 -6.117,0.302 -9.193,0.335 -3.077,0.033 -6.154,0.007 -11.007,0.007 z"
         id="path9" />
      <path
         fill="#47251a"
         d="m 532.35423,137.98072 c -3.953,2.3 -6.269,4.548 -8.91,5.036 -16.739,3.092 -33.599,4.252 -50.435,0.805 -3.407,-0.697 -6.945,-2.13 -9.681,-4.203 -1.632,-1.236 -2.513,-4.413 -2.405,-6.654 0.069,-1.446 2.346,-3.673 3.964,-4.022 21.018,-4.536 41.728,-3.897 61.779,4.649 1.344,0.573 2.401,1.817 5.688,4.389 z"
         id="path10" />
    </g>
  </g>
</svg>
